<svg xmlns="http://www.w3.org/2000/svg" width="913" height="666"
    viewBox="0 0 913 666" version="1.1">
    <path
        d="M 316 25.481 C 316 31.619, 314.952 30.904, 327 32.989 C 337.810 34.860, 359.652 40.837, 369.358 44.580 C 397.841 55.565, 423.244 73.850, 438.705 94.496 C 444.104 101.704, 453 116.852, 453 118.836 C 453 121.042, 450.384 119.991, 446.946 116.404 C 445.051 114.426, 439.653 109.565, 434.951 105.601 C 398.173 74.598, 348.112 57.278, 286.830 54.352 C 273 53.692, 273 53.692, 273 59.869 C 273 66.047, 273 66.047, 265 65.380 C 257 64.712, 257 64.712, 257 196.856 C 257 329, 257 329, 267.250 329.002 C 279.182 329.005, 301.234 330.528, 312 332.092 C 336.009 335.580, 366.294 343.436, 387.350 351.638 C 400.649 356.818, 425.049 368.884, 435.896 375.644 C 443.715 380.518, 445.477 382.087, 446.396 385 C 447.500 388.500, 447.500 388.500, 456.482 388.792 C 464.067 389.039, 465.662 388.815, 466.732 387.351 C 467.741 385.972, 468 358.350, 468 252.252 C 468 118.887, 468 118.887, 471.092 116.063 C 475.210 112.302, 492.721 101.930, 502.582 97.411 C 534.065 82.983, 576.378 72.359, 619.500 68.056 C 643.688 65.643, 641 66.659, 641 59.928 C 641 54, 641 54, 634.750 54.004 C 623.792 54.011, 600.886 56.015, 588.731 58.030 C 540.116 66.087, 500.674 84.468, 470.506 113.124 C 460.446 122.681, 458.686 122.331, 464.134 111.859 C 476.757 87.597, 498.637 66.709, 525.579 53.200 C 546.118 42.902, 568.568 35.918, 595.250 31.527 C 599 30.909, 599 30.909, 599 25.455 C 599 20, 599 20, 595.724 20 C 583.764 20, 559.883 25.314, 543.608 31.597 C 505.187 46.428, 477.173 73.632, 462.868 110 C 459.738 117.958, 458.747 119.548, 456.763 119.797 C 454.698 120.057, 454.180 119.412, 452.711 114.753 C 448.604 101.723, 437.777 82.997, 427.342 70.876 C 405.280 45.251, 369.485 26.912, 331.074 21.554 C 314.951 19.305, 316 19.032, 316 25.481 M 296 121.981 C 296 151.691, 296.164 176, 296.365 176 C 296.566 176, 300.054 174.434, 304.115 172.521 C 311.500 169.042, 311.500 169.042, 319.250 176.989 C 327 184.936, 327 184.936, 327 128.657 C 327 72.379, 327 72.379, 313.750 70.616 C 306.462 69.647, 299.488 68.653, 298.250 68.408 C 296 67.962, 296 67.962, 296 121.981 M 605 163.597 C 580.293 166.872, 546.409 175.432, 520.250 185.006 C 517.240 186.108, 517 186.528, 517 190.705 C 517 194.606, 517.236 195.117, 518.750 194.497 C 519.712 194.103, 527.785 191.376, 536.689 188.438 C 561.434 180.271, 591.317 173.458, 611.425 171.397 C 618 170.724, 618 170.724, 618 166.362 C 618 163.484, 617.575 162.035, 616.750 162.103 C 616.063 162.159, 610.775 162.832, 605 163.597 M 606.539 186.628 C 584.209 189.487, 555.725 196.265, 530.750 204.662 C 517 209.285, 517 209.285, 517 213.750 C 517 217.608, 517.238 218.117, 518.750 217.497 C 519.712 217.103, 527.785 214.376, 536.689 211.438 C 561.434 203.271, 591.317 196.458, 611.425 194.397 C 618 193.724, 618 193.724, 618 189.362 C 618 186.963, 617.888 185.050, 617.750 185.112 C 617.612 185.174, 612.568 185.856, 606.539 186.628 M 602 210.521 C 582.221 213.258, 556.774 219.389, 533 227.145 C 516.657 232.477, 517 232.265, 517 237.035 C 517 239.216, 517.337 240.998, 517.750 240.996 C 518.163 240.994, 522.100 239.645, 526.500 237.999 C 549.741 229.301, 586.617 220.462, 612.250 217.446 C 618 216.770, 618 216.770, 618 212.885 C 618 209.147, 617.877 209.004, 614.750 209.103 C 612.962 209.160, 607.225 209.798, 602 210.521 M 153 623.500 C 153 641, 153 641, 155.500 641 C 157.922 641, 158 640.787, 158 634.200 C 158 628.005, 159.020 625, 161.124 625 C 161.522 625, 164.020 628.588, 166.674 632.974 C 170.810 639.808, 171.893 640.952, 174.250 640.974 C 175.762 640.988, 177 640.762, 177 640.471 C 177 640.181, 174.293 635.647, 170.986 630.396 C 164.971 620.849, 164.971 620.849, 166.902 618.175 C 167.964 616.704, 170.670 613.721, 172.916 611.547 C 177.607 607.007, 177.925 606, 174.669 606 C 173.084 606, 170.043 608.367, 165.169 613.393 C 158 620.787, 158 620.787, 158 613.393 C 158 606.174, 157.941 606, 155.500 606 C 153 606, 153 606, 153 623.500 M 220.667 606.667 C 220.300 607.033, 220 614.908, 220 624.167 C 220 641, 220 641, 222.500 641 C 225 641, 225 641, 225.005 627.750 C 225.009 614.500, 225.009 614.500, 233.755 627.727 C 241.427 639.332, 242.837 640.957, 245.250 640.977 C 248 641, 248 641, 248 623.500 C 248 606, 248 606, 245.529 606 C 243.058 606, 243.058 606, 242.779 619.146 C 242.500 632.292, 242.500 632.292, 233.746 619.146 C 225.462 606.706, 222.988 604.346, 220.667 606.667 M 301.149 607.696 C 291.530 612.436, 289.208 628, 296.871 636.373 C 306.194 646.561, 322.408 642.305, 326.084 628.705 C 327.378 623.915, 326.175 616.723, 323.362 612.430 C 319.531 606.583, 308.276 604.185, 301.149 607.696 M 369 607.152 C 369 608.286, 375.149 631.411, 377.136 637.750 C 377.952 640.352, 378.688 641, 380.828 641 C 383.398 641, 383.651 640.481, 387.460 627.450 C 391.420 613.900, 391.420 613.900, 394.222 623.700 C 395.763 629.090, 397.486 635.188, 398.050 637.250 C 398.927 640.452, 399.489 641, 401.891 641 C 404.679 641, 404.749 640.842, 409.376 624.250 C 411.945 615.038, 414.036 607.163, 414.023 606.750 C 414.010 606.337, 412.921 606, 411.603 606 C 409.355 606, 408.998 606.843, 405.890 619.500 C 404.067 626.925, 402.324 633, 402.018 633 C 401.712 633, 400.387 629.063, 399.075 624.250 C 394.028 605.749, 394.132 606, 391.504 606 C 388.946 606, 388.823 606.300, 383.456 625.500 C 382.533 628.800, 381.473 631.833, 381.099 632.240 C 380.726 632.647, 378.929 626.909, 377.107 619.490 C 374.002 606.842, 373.645 606, 371.397 606 C 370.079 606, 369 606.518, 369 607.152 M 458 623.430 C 458 641, 458 641, 468.573 641 C 478.104 641, 479.114 640.827, 478.812 639.250 C 478.535 637.795, 477.178 637.451, 470.765 637.208 C 463.052 636.917, 463.052 636.917, 462.776 621.708 C 462.505 606.794, 462.457 606.494, 460.250 606.180 C 458 605.861, 458 605.861, 458 623.430 M 522.667 606.667 C 522.300 607.033, 522 614.908, 522 624.167 C 522 641, 522 641, 533 641 C 543.333 641, 544 640.879, 544 639 C 544 637.157, 543.333 637, 535.500 637 C 527 637, 527 637, 527 631.500 C 527 626, 527 626, 535 626 C 542.333 626, 543 625.833, 543 624 C 543 622.167, 542.333 622, 535 622 C 527 622, 527 622, 527 616 C 527 610, 527 610, 535.500 610 C 543.333 610, 544 609.843, 544 608 C 544 606.129, 543.333 606, 533.667 606 C 527.983 606, 523.033 606.300, 522.667 606.667 M 589.667 606.667 C 589.300 607.033, 589 614.908, 589 624.167 C 589 641, 589 641, 597.750 640.998 C 612.349 640.996, 618 636.336, 618 624.302 C 618 611.457, 611.585 606.019, 596.417 606.006 C 593.071 606.003, 590.033 606.300, 589.667 606.667 M 670.218 607.663 C 658.493 613.442, 658.674 634.275, 670.500 640 C 676.770 643.035, 683.408 642.449, 687.345 638.512 C 688.885 636.972, 689 637.001, 689 638.929 C 689 640.471, 689.638 641, 691.500 641 C 693.991 641, 694 640.967, 694 631.500 C 694 622, 694 622, 686.500 622 C 679.667 622, 679 622.178, 679 624 C 679 625.733, 679.667 626, 684 626 C 689.444 626, 689.700 626.389, 687.585 631.452 C 685.821 635.672, 683.413 637, 677.520 637 C 673.994 637, 672.348 636.439, 670.524 634.615 C 663.931 628.022, 665.770 614.665, 673.728 611.340 C 678.557 609.322, 683.252 610.322, 686.375 614.034 C 688.940 617.083, 693 618.064, 693 615.635 C 693 613.569, 689.182 609.146, 685.961 607.480 C 682.208 605.539, 674.342 605.631, 670.218 607.663 M 739 623.500 C 739 641, 739 641, 750 641 C 760.333 641, 761 640.879, 761 639 C 761 637.157, 760.333 637, 752.500 637 C 744 637, 744 637, 744 631.542 C 744 626.084, 744 626.084, 751.739 625.792 C 758.177 625.549, 759.535 625.206, 759.812 623.750 C 760.108 622.200, 759.223 622, 752.073 622 C 744 622, 744 622, 744 616 C 744 610, 744 610, 752.500 610 C 760.333 610, 761 609.843, 761 608 C 761 606.121, 760.333 606, 750 606 C 739 606, 739 606, 739 623.500 M 304 611.702 C 299.245 614.145, 296.775 619.170, 297.305 625.324 C 297.820 631.301, 300.537 635.114, 305.453 636.760 C 316.054 640.308, 324.712 630.076, 320.823 618.596 C 318.402 611.450, 310.664 608.279, 304 611.702 M 594 624 C 594 637, 594 637, 599.550 637 C 609.982 637, 613.593 632.871, 612.796 621.851 C 612.422 616.687, 611.912 615.321, 609.620 613.349 C 607.364 611.409, 605.766 611, 600.444 611 C 594 611, 594 611, 594 624"
        stroke="none" fill="#f39404" fill-rule="evenodd" />
    <path
        d="M 343 12.630 C 343 23.518, 343 23.518, 351.748 25.836 C 395.900 37.532, 428.487 63.100, 446.554 100.220 C 449.014 105.275, 451.778 111.794, 452.696 114.706 C 453.614 117.618, 454.733 120, 455.183 120 C 456.309 120, 456.287 119.834, 453.582 108 C 441.671 55.880, 409.086 19.893, 360.687 5.406 C 356.338 4.105, 350.580 2.748, 347.890 2.391 C 343 1.742, 343 1.742, 343 12.630 M 562.500 2.695 C 545.004 6.746, 524.383 16.224, 510.890 26.418 C 485.510 45.593, 469.051 72.043, 460.433 107.500 C 456.679 122.946, 457.464 124.313, 462.444 111 C 471.098 87.865, 488.185 65.492, 508.900 50.172 C 522.728 39.945, 543.119 30.546, 562.180 25.613 C 571.500 23.200, 571.500 23.200, 571.784 12.600 C 572.068 2, 572.068 2, 568.284 2.116 C 566.203 2.180, 563.600 2.440, 562.500 2.695 M 291 42 C 291 55, 291 55, 295.780 55 C 315.951 55, 355.288 63.402, 379.774 72.941 C 403.827 82.310, 431.329 100.105, 446.946 116.404 C 450.384 119.991, 453 121.042, 453 118.836 C 453 116.852, 444.104 101.704, 438.705 94.496 C 423.244 73.850, 397.841 55.565, 369.358 44.580 C 349.448 36.901, 314.280 29.291, 297.750 29.084 C 291 29, 291 29, 291 42 M 605.500 29.647 C 603.850 29.839, 600.250 30.442, 597.500 30.988 C 594.750 31.534, 588.675 32.696, 584 33.569 C 564.862 37.145, 542.845 44.544, 525.579 53.200 C 498.637 66.709, 476.757 87.597, 464.134 111.859 C 458.686 122.331, 460.446 122.681, 470.506 113.124 C 485.318 99.055, 499.967 88.984, 519.500 79.443 C 546.578 66.217, 581.114 57.256, 613 55.183 C 623.500 54.500, 623.500 54.500, 623.780 41.750 C 624.060 29, 624.060 29, 616.280 29.150 C 612.001 29.232, 607.150 29.456, 605.500 29.647 M 638 66.035 C 634.975 66.471, 627.100 67.345, 620.500 67.977 C 577.360 72.112, 534.375 82.841, 502.582 97.411 C 492.721 101.930, 475.210 112.302, 471.092 116.063 C 468 118.887, 468 118.887, 468 250.335 C 468 381.783, 468 381.783, 478.750 375.299 C 526.885 346.265, 579.574 330.969, 637.250 329.287 C 657 328.711, 657 328.711, 657 196.855 C 657 65, 657 65, 650.250 65.121 C 646.538 65.187, 641.025 65.598, 638 66.035 M 296 121.981 C 296 151.691, 296.164 176, 296.365 176 C 296.566 176, 300.054 174.434, 304.115 172.521 C 311.500 169.042, 311.500 169.042, 319.250 176.989 C 327 184.936, 327 184.936, 327 128.657 C 327 72.379, 327 72.379, 313.750 70.616 C 306.462 69.647, 299.488 68.653, 298.250 68.408 C 296 67.962, 296 67.962, 296 121.981 M 605 163.597 C 580.293 166.872, 546.409 175.432, 520.250 185.006 C 517.240 186.108, 517 186.528, 517 190.705 C 517 194.606, 517.236 195.117, 518.750 194.497 C 519.712 194.103, 527.785 191.376, 536.689 188.438 C 561.434 180.271, 591.317 173.458, 611.425 171.397 C 618 170.724, 618 170.724, 618 166.362 C 618 163.484, 617.575 162.035, 616.750 162.103 C 616.063 162.159, 610.775 162.832, 605 163.597 M 606.539 186.628 C 584.209 189.487, 555.725 196.265, 530.750 204.662 C 517 209.285, 517 209.285, 517 213.750 C 517 217.608, 517.238 218.117, 518.750 217.497 C 519.712 217.103, 527.785 214.376, 536.689 211.438 C 561.434 203.271, 591.317 196.458, 611.425 194.397 C 618 193.724, 618 193.724, 618 189.362 C 618 186.963, 617.888 185.050, 617.750 185.112 C 617.612 185.174, 612.568 185.856, 606.539 186.628 M 602 210.521 C 582.221 213.258, 556.774 219.389, 533 227.145 C 516.657 232.477, 517 232.265, 517 237.035 C 517 239.216, 517.337 240.998, 517.750 240.996 C 518.163 240.994, 522.100 239.645, 526.500 237.999 C 549.741 229.301, 586.617 220.462, 612.250 217.446 C 618 216.770, 618 216.770, 618 212.885 C 618 209.147, 617.877 209.004, 614.750 209.103 C 612.962 209.160, 607.225 209.798, 602 210.521 M 363 494 C 363 541, 363 541, 372.472 541 C 381.944 541, 381.944 541, 382.222 527.534 C 382.500 514.068, 382.500 514.068, 391.806 527.534 C 401.111 541, 401.111 541, 412.124 541 C 423.136 541, 423.136 541, 420.852 537.750 C 419.596 535.962, 414.615 528.984, 409.784 522.242 C 404.953 515.500, 401 509.546, 401 509.010 C 401 508.473, 405.500 501.966, 411 494.549 C 416.500 487.132, 421 480.824, 421 480.532 C 421 480.239, 416.387 480.024, 410.750 480.053 C 400.500 480.106, 400.500 480.106, 391.500 493.006 C 382.500 505.907, 382.500 505.907, 382.235 476.453 C 381.970 447, 381.970 447, 372.485 447 C 363 447, 363 447, 363 494 M 741.923 452.923 C 735.564 459.282, 739.748 471, 748.376 471 C 753.136 471, 756.334 469.398, 758.335 466.010 C 764.615 455.378, 750.625 444.221, 741.923 452.923 M 62 496.575 C 62 541.150, 62 541.150, 81.750 540.820 C 99.962 540.516, 101.907 540.306, 106.727 538.132 C 123.824 530.418, 127.794 509.806, 114.441 498.083 C 110.765 494.855, 110.765 494.855, 113.268 492.177 C 117.906 487.218, 119.243 483.299, 118.824 475.891 C 118.345 467.418, 114.932 462.006, 107.106 457.310 C 99.853 452.958, 94.411 452, 76.951 452 C 62 452, 62 452, 62 496.575 M 459 471.500 C 459 480, 459 480, 454.500 480 C 450 480, 450 480, 450 487.500 C 450 495, 450 495, 454.414 495 C 458.828 495, 458.828 495, 459.164 511.250 C 459.468 525.940, 459.728 527.962, 461.871 532.316 C 463.361 535.342, 465.750 538.130, 468.298 539.816 C 471.950 542.233, 473.257 542.500, 481.427 542.500 C 489.557 542.500, 490.994 542.210, 495.250 539.708 C 497.863 538.172, 500 536.422, 500 535.818 C 500 534.957, 494.783 525.651, 493.473 524.176 C 493.315 523.998, 491.816 524.561, 490.143 525.426 C 486.022 527.557, 482.405 527.405, 480 525 C 478.190 523.190, 478 521.667, 478 509 C 478 495, 478 495, 486 495 C 494 495, 494 495, 494 487.500 C 494 480, 494 480, 486 480 C 478 480, 478 480, 478 471.500 C 478 463, 478 463, 468.500 463 C 459 463, 459 463, 459 471.500 M 82 478.500 C 82 488, 82 488, 86.032 488 C 91.090 488, 96.507 485.790, 97.920 483.150 C 99.112 480.922, 99.344 476.061, 98.379 473.545 C 97.386 470.957, 92.507 469, 87.050 469 C 82 469, 82 469, 82 478.500 M 181.314 479.791 C 165.860 485.328, 158.263 496.706, 159.201 512.912 C 159.549 518.925, 160.268 521.723, 162.539 525.894 C 170.460 540.449, 187.861 546.765, 203.705 540.837 C 211.664 537.860, 219.995 529.517, 222.526 521.990 C 228.091 505.436, 220.868 488.329, 205.204 480.966 C 198.703 477.910, 188.030 477.386, 181.314 479.791 M 284.500 478.894 C 269.600 482.903, 259.679 495.294, 259.595 510 C 259.539 519.710, 262.170 526.235, 268.891 533.057 C 276.425 540.705, 283.355 543.371, 294.139 542.770 C 311.748 541.788, 323.759 530.071, 324.787 512.873 C 325.633 498.710, 319.598 487.881, 307.552 481.951 C 300.618 478.537, 290.709 477.223, 284.500 478.894 M 557.500 478.894 C 542.600 482.903, 532.679 495.294, 532.595 510 C 532.539 519.710, 535.170 526.235, 541.891 533.057 C 549.425 540.705, 556.355 543.371, 567.139 542.770 C 584.748 541.788, 596.759 530.071, 597.787 512.873 C 598.633 498.710, 592.598 487.881, 580.552 481.951 C 573.618 478.537, 563.709 477.223, 557.500 478.894 M 665.942 478.888 C 662.112 480.140, 658.764 482.009, 656.250 484.299 C 654 486.349, 654 486.349, 654 483.174 C 654 480, 654 480, 645 480 C 636 480, 636 480, 636 527 C 636 574, 636 574, 645.500 574 C 655 574, 655 574, 655 555.432 C 655 536.864, 655 536.864, 657.750 538.779 C 661.783 541.588, 666.646 543, 672.283 543 C 683.687 543, 692.484 537.378, 698 526.563 C 701.243 520.206, 701.500 519.033, 701.495 510.601 C 701.489 500.581, 699.729 495.233, 694.095 488.119 C 688.186 480.659, 674.376 476.131, 665.942 478.888 M 815.734 479.088 C 811.537 480.077, 805.750 482.942, 802.083 485.846 C 799.666 487.760, 799.666 487.760, 801.706 490.353 C 807.534 497.762, 810.279 500.309, 811.478 499.420 C 817.077 495.269, 818.585 494.636, 823.023 494.571 C 828.888 494.485, 832.978 497.132, 834.644 502.094 C 835.273 503.967, 835.702 505.596, 835.597 505.713 C 835.492 505.831, 833.219 505.268, 830.544 504.463 C 813.043 499.196, 796.044 508.576, 796.044 523.500 C 796.044 528.234, 798.783 534.624, 802.132 537.702 C 809.623 544.589, 823.911 544.873, 832.750 538.311 C 836 535.898, 836 535.898, 836 538.449 C 836 540.996, 836.014 541, 845.070 541 C 854.140 541, 854.140 541, 853.820 519.250 C 853.500 497.500, 853.500 497.500, 850.564 492.199 C 844.291 480.877, 830.376 475.639, 815.734 479.088 M 740 510.500 C 740 541, 740 541, 749.500 541 C 759 541, 759 541, 759 510.500 C 759 480, 759 480, 749.500 480 C 740 480, 740 480, 740 510.500 M 662.009 496.855 C 658.002 499.004, 653.989 505.813, 654.022 510.407 C 654.056 515.211, 657.497 521.723, 661.192 523.976 C 671.133 530.037, 683.060 523.015, 683.153 511.046 C 683.246 498.981, 672.054 491.469, 662.009 496.855 M 181.882 499.882 C 177.957 503.808, 177.464 505.529, 177.984 513.500 C 178.685 524.269, 192.874 529.591, 200.899 522.095 C 207.885 515.568, 206.833 502.286, 198.960 497.636 C 197.351 496.685, 194.009 496, 190.978 496 C 186.255 496, 185.399 496.365, 181.882 499.882 M 284.849 497.520 C 281.739 499.210, 277.991 506.372, 278.022 510.566 C 278.052 514.645, 281.370 521.546, 284.166 523.348 C 290.671 527.540, 300.215 525.624, 304.094 519.348 C 305.858 516.493, 306.154 514.762, 305.808 509.321 C 305.421 503.255, 305.103 502.483, 301.709 499.372 C 298.485 496.418, 297.377 496.005, 292.765 496.040 C 289.869 496.062, 286.307 496.728, 284.849 497.520 M 557.849 497.520 C 554.739 499.210, 550.991 506.372, 551.022 510.566 C 551.052 514.645, 554.370 521.546, 557.166 523.348 C 563.671 527.540, 573.215 525.624, 577.094 519.348 C 578.858 516.493, 579.154 514.762, 578.808 509.321 C 578.421 503.255, 578.103 502.483, 574.709 499.372 C 571.485 496.418, 570.377 496.005, 565.765 496.040 C 562.869 496.062, 559.307 496.728, 557.849 497.520 M 82 514.355 C 82 525, 82 525, 86.375 525 C 98.552 525, 104.142 520.026, 101.811 511.263 C 100.703 507.100, 96.861 505.099, 88.472 504.315 C 82 503.711, 82 503.711, 82 514.355 M 817.198 517.750 C 813.766 520.717, 813.540 523.631, 816.513 526.603 C 818.833 528.924, 819.745 529.183, 824.121 528.762 C 829.563 528.239, 835 524.241, 835 520.762 C 835 516.574, 821.248 514.248, 817.198 517.750"
        stroke="none" fill="#2c2c2c" fill-rule="evenodd" />
</svg>